<?xml version="1.0" encoding="iso-8859-1"?>
<!-- Generator: Adobe Illustrator 19.0.0, SVG Export Plug-In . SVG Version: 6.00 Build 0)  -->
<svg version="1.1" id="Layer_1" xmlns="http://www.w3.org/2000/svg" xmlns:xlink="http://www.w3.org/1999/xlink" x="0px" y="0px"
	 viewBox="0 0 481.386 481.386" style="enable-background:new 0 0 481.386 481.386;" xml:space="preserve">
<g>
	<g>
		<g>
			<path d="M464,314.165v-49.472c0-0.336-0.152-0.624-0.192-0.952c-0.032-0.264,0.064-0.52,0.008-0.784l-13.84-62.264h7.408
				c7.776,0,15.104-3.792,19.592-10.144c4.496-6.344,5.632-14.512,3.048-21.848l-36.712-104
				c-3.384-9.576-12.48-16.008-22.632-16.008H248.56c-8.04,0-15.504,4-19.968,10.688L203.72,96.693H40c-22.056,0-40,17.944-40,40
				v216c0,13.232,10.768,24,24,24h24c0,16.688,8.568,31.392,21.52,40H40c-4.424,0-8,3.584-8,8c0,4.416,3.576,8,8,8h168
				c4.424,0,8-3.584,8-8c0-4.416-3.576-8-8-8h-85.52c12.96-8.608,21.52-23.312,21.52-40h192c0,16.688,8.568,31.392,21.52,40H328
				c-4.424,0-8,3.584-8,8c0,4.416,3.576,8,8,8h120c4.424,0,8-3.584,8-8c0-4.416-3.576-8-8-8h-37.52
				c12.96-8.608,21.52-23.312,21.52-40h24c13.232,0,24-10.768,24-24v-16C480,326.277,473.288,317.477,464,314.165z M96,408.693
				c-17.648,0-32-14.352-32-32h16c0,8.84,7.16,16,16,16c8.84,0,16-7.16,16-16h16C128,394.341,113.648,408.693,96,408.693z
				 M288,360.693h-80v-152c0-4.408,3.584-8,8-8h64c4.416,0,8,3.592,8,8V360.693z M328,184.693c-4.424,0-8,3.584-8,8v128v40h-16v-152
				c0-13.232-10.768-24-24-24h-64c-13.232,0-24,10.768-24,24v152H24c-4.416,0-8-3.592-8-8v-216c0-13.232,10.768-24,24-24h168
				c2.672,0,5.168-1.336,6.656-3.56l27.248-40.872c1.488-2.232,3.976-3.568,6.656-3.568h172.12c3.384,0,6.416,2.144,7.536,5.336
				l36.712,104c0.872,2.48,0.504,5.136-1.016,7.28c-1.512,2.152-3.896,3.384-6.528,3.384H440H328z M408.408,243.229l4.496,13.464
				H336v-56h97.584l12.44,56H429.76l-6.176-18.528c-1.4-4.192-5.88-6.472-10.12-5.056
				C409.28,234.509,407.008,239.037,408.408,243.229z M352,272.693v8c0,4.416,3.576,8,8,8s8-3.584,8-8v-8h80v40H336v-40H352z
				 M384,408.693c-17.648,0-32-14.352-32-32h16c0,8.84,7.16,16,16,16c8.84,0,16-7.16,16-16h16
				C416,394.341,401.648,408.693,384,408.693z M464,352.693c0,4.408-3.584,8-8,8H344.808H336v-32h120c4.416,0,8,3.592,8,8V352.693z"
				/>
			<path d="M248,216.693c-13.232,0-24,10.768-24,24s10.768,24,24,24s24-10.768,24-24S261.232,216.693,248,216.693z M248,248.693
				c-4.416,0-8-3.592-8-8c0-4.408,3.584-8,8-8c4.416,0,8,3.592,8,8S252.416,248.693,248,248.693z"/>
			<path d="M264,280.693c-4.424,0-8,3.584-8,8v8c0,4.416,3.576,8,8,8s8-3.584,8-8v-8C272,284.277,268.424,280.693,264,280.693z"/>
			<path d="M168,184.693H56c-13.232,0-24,10.768-24,24v80c0,4.416,3.576,8,8,8h112c13.232,0,24-10.768,24-24v-80
				C176,188.277,172.424,184.693,168,184.693z M160,272.693c0,4.408-3.584,8-8,8H48v-16h112V272.693z M160,248.693H48v-40
				c0-4.408,3.584-8,8-8h104V248.693z"/>
			<path d="M393.184,96.461c-2.872-4.792-8.128-7.768-13.712-7.768H275.84c-4.888,0-9.448,2.192-12.496,6l-19.2,24
				c-3.872,4.848-4.608,11.336-1.92,16.928s8.224,9.072,14.424,9.072h137.216c5.84,0,11.048-3.032,13.928-8.12
				c2.872-5.088,2.8-11.112-0.208-16.112L393.184,96.461z M256.648,128.693l19.192-24h103.624l14.448,24H256.648z"/>
			<path d="M168,144.693H40c-4.424,0-8,3.584-8,8s3.576,8,8,8h128c4.424,0,8-3.584,8-8S172.424,144.693,168,144.693z"/>
			<path d="M296,416.693h-16c-4.424,0-8,3.584-8,8c0,4.416,3.576,8,8,8h16c4.424,0,8-3.584,8-8
				C304,420.277,300.424,416.693,296,416.693z"/>
			<path d="M56,320.693H40c-4.424,0-8,3.584-8,8c0,4.416,3.576,8,8,8h16c4.424,0,8-3.584,8-8C64,324.277,60.424,320.693,56,320.693z
				"/>
		</g>
	</g>
</g>
<g>
</g>
<g>
</g>
<g>
</g>
<g>
</g>
<g>
</g>
<g>
</g>
<g>
</g>
<g>
</g>
<g>
</g>
<g>
</g>
<g>
</g>
<g>
</g>
<g>
</g>
<g>
</g>
<g>
</g>
</svg>
