<?xml version="1.0" encoding="iso-8859-1"?>
<!-- Generator: Adobe Illustrator 16.0.0, SVG Export Plug-In . SVG Version: 6.00 Build 0)  -->
<!DOCTYPE svg PUBLIC "-//W3C//DTD SVG 1.1//EN" "http://www.w3.org/Graphics/SVG/1.1/DTD/svg11.dtd">
<svg version="1.1" id="Capa_1" xmlns="http://www.w3.org/2000/svg" xmlns:xlink="http://www.w3.org/1999/xlink" x="0px" y="0px"
	 width="549.777px" height="549.777px" viewBox="0 0 549.777 549.777" style="enable-background:new 0 0 549.777 549.777;"
	 xml:space="preserve">
<g>
	<g>
		<path d="M14.501,300.028c8.009,0,14.497-6.488,14.502-14.492c0.004-0.005,0.019-88.558,0.019-88.558
			c0-0.832,0.674-1.506,1.506-1.506h3.074c0.832,0,1.506,0.674,1.506,1.506c0,0,0,248.448,0,248.477
			c0,10.327,8.372,18.704,18.704,18.704c10.328,0,18.705-8.372,18.705-18.704c0-0.029,0-146.201,0-146.201
			c0-1.066,0.492-1.511,1.544-1.511h3.017c1.052,0,1.544,0.444,1.544,1.511c0,0,0,146.172,0,146.201
			c0,10.327,8.372,18.704,18.704,18.704c10.333,0,18.705-8.372,18.705-18.704c0-0.029,0-248.477,0-248.477
			c0-0.832,0.674-1.506,1.506-1.506h3.074c0.832,0,1.506,0.674,1.506,1.506c0,0,0.014,88.558,0.019,88.558
			c0.005,8.004,6.498,14.492,14.501,14.492c8.009,0,14.506-6.493,14.506-14.506c0-0.043,0-99.58,0-100.765
			c0-19.847-15.267-35.114-34.349-35.114c-0.487,0-26.139,0-38.168,0c0,0-43.792,0-44.274,0C15.271,149.644,0,164.91,0,184.757
			c0,1.186,0,100.717,0,100.765C-0.004,293.535,6.488,300.028,14.501,300.028z"/>
		<circle cx="75.568" cy="113.445" r="27.832"/>
		<path d="M432.98,149.648c-19.082,0-34.354,15.267-34.354,35.114c0,1.186,0,100.717,0,100.764c0,8.009,6.493,14.507,14.507,14.507
			c8.009,0,14.496-6.488,14.501-14.492c0.005-0.005,0.02-88.558,0.02-88.558c0-0.832,0.674-1.506,1.506-1.506h3.074
			c0.832,0,1.507,0.674,1.507,1.506c0,0,0,248.448,0,248.477c0,10.327,8.371,18.704,18.704,18.704
			c10.327,0,18.704-8.372,18.704-18.704c0-0.029,0-146.201,0-146.201c0-1.066,0.492-1.511,1.544-1.511h3.018
			c1.052,0,1.544,0.444,1.544,1.511c0,0,0,146.172,0,146.201c0,10.327,8.372,18.704,18.704,18.704
			c10.328,0,18.704-8.372,18.704-18.704c0-0.029,0-248.477,0-248.477c0-0.832,0.675-1.506,1.507-1.506h3.074
			c0.832,0,1.506,0.674,1.506,1.506c0,0,0.015,88.558,0.02,88.558c0.005,8.004,6.497,14.492,14.501,14.492
			c8.009,0,14.507-6.493,14.507-14.507c0-0.043,0-99.579,0-100.765c0-19.847-15.267-35.113-34.354-35.113c-0.487,0-26.14,0-38.169,0
			C477.255,149.648,433.464,149.648,432.98,149.648z"/>
		<circle cx="474.2" cy="113.445" r="27.832"/>
		<path d="M361.128,292.474c0,0,4.083,0,4.169,0c0.966,0,1.382,0.789,1.464,0.98l13.77,44.796c1.501,4.882,6.675,7.626,11.557,6.129
			c4.886-1.496,7.631-6.674,6.134-11.561c-0.005-0.02-8.128-26.512-13.708-44.705c-0.057-0.22-0.109-0.411-0.152-0.568
			c-2.113-7.35-8.392-24.079-23.997-24.079h-39.742c-14.54,0-22.156,16.729-24.27,24.079c-0.043,0.157-13.856,45.259-13.86,45.273
			c-1.497,4.887,1.247,10.06,6.134,11.561c4.882,1.497,10.055-1.243,11.557-6.129c0.005,0,13.722-44.796,13.722-44.796
			c0.082-0.191,0.493-0.98,1.463-0.98c0.087,0,4.352,0,4.352,0c0.55-0.009,0.87,0.459,0.727,0.99l-27.583,90.71
			c-0.148,0.525,0,1.448,0.966,1.448h19.135c0.55,0,0.951,0.445,0.951,0.995c0,0-0.005,65.574-0.005,65.599
			c0,6.588,5.341,11.934,11.935,11.934c6.593,0,11.934-5.341,11.934-11.934l0.005-65.604c0-0.55,0.444-0.995,0.994-0.995
			c0,0,3.682,0,4.117,0c0.435,0,1.009,0.445,1.009,0.995l0.005,65.604c0,6.588,5.341,11.934,11.934,11.934
			c6.589,0,11.935-5.341,11.935-11.934c0-0.024-0.005-65.599-0.005-65.599c0-0.55,0.401-0.995,0.951-0.995h18.398
			c0.966,0,1.114-0.923,0.966-1.448l-27.617-90.715C360.315,292.933,360.578,292.465,361.128,292.474z"/>
		<path d="M366.474,249.213c1.554-0.182,4.016-5.915,6.421-10.911c0.393-0.817,1.057-2.142,1.344-3.007
			c1.76-5.369,0.306-13.153-6.464-13.822c-4.103-0.411-8.377,1.75-11.385,3.777c-0.76,0.512-1.841,0.402-2.505-0.22
			c-3.5-3.256-8.186-5.25-13.345-5.25c-4.958,0-9.486,1.851-12.934,4.887c-0.688,0.598-1.788,0.708-2.558,0.21
			c-2.965-1.908-6.962-3.792-10.815-3.404c-6.771,0.674-8.224,8.458-6.464,13.827c0.286,0.87,0.946,2.185,1.343,3.007
			c2.405,4.997,4.863,10.729,6.436,10.916c1.563,0.196-3.447-11.843,0.153-15.601c0.626-0.655,2.118-0.98,3.031-0.899
			c0.454,0.038,0.98,0.115,1.563,0.253c0.885,0.22,1.334,1.214,1.138,2.104c-0.306,1.381-0.468,2.811-0.468,4.289
			c0,10.815,8.773,19.589,19.589,19.589c10.814,0,19.588-8.774,19.588-19.589c0-1.334-0.138-2.644-0.392-3.906
			c-0.182-0.889,0.263-1.941,1.124-2.233c0.932-0.315,1.759-0.454,2.419-0.512c0.903-0.072,2.396,0.239,3.031,0.899
			C369.916,237.365,364.9,249.409,366.474,249.213z"/>
		<path d="M230.313,464.154c6.756,0,12.14-5.503,12.14-12.264c0-0.02,0-162.323,0-162.323c0-0.546,0.44-0.985,0.985-0.985h4.165
			c0.545,0,0.971,0.439,0.971,0.985c0,0-0.02,57.695-0.015,57.7c0.005,5.235,4.337,9.251,9.572,9.251c5.24,0,9.51-4.021,9.51-9.261
			c0-0.029,0-65.149,0-65.924c0-12.986-12.207-23.29-24.69-23.29c-0.315,0-55.687,0-56.007,0c-12.484,0-24.633,10.303-24.633,23.29
			c0,0.774,0,65.895,0,65.924c0,5.24,4.322,9.261,9.562,9.261s9.515-4.016,9.52-9.251l-0.014-57.7c0-0.546,0.43-0.985,0.975-0.985
			h4.103c0.545,0,1.042,0.439,1.042,0.985c0,0-0.015,162.304-0.015,162.323c0,6.756,5.456,12.264,12.216,12.264
			c6.756,0,12.216-5.441,12.216-12.197c0-0.019,0-95.974,0-95.974c0-0.698,0.325-0.99,1.014-0.99h4.041
			c0.688,0,1.057,0.292,1.057,0.99c0,0,0.014,95.739,0.014,95.974C218.04,458.713,223.557,464.154,230.313,464.154z"/>
		<path d="M205.78,217.91c-6.249,3.304-10.509,9.869-10.509,17.428c0,10.882,8.822,19.708,19.708,19.708s19.708-8.821,19.708-19.708
			c0-6.727-3.375-12.666-8.521-16.223v-11.537l-5.312,8.946c-0.578-0.182-1.171-0.335-1.773-0.459v-8.487l-4.844,8.076
			c-0.784,0.028-1.559,0.1-2.314,0.22v-8.291L205.78,217.91z"/>
	</g>
</g>
<g>
</g>
<g>
</g>
<g>
</g>
<g>
</g>
<g>
</g>
<g>
</g>
<g>
</g>
<g>
</g>
<g>
</g>
<g>
</g>
<g>
</g>
<g>
</g>
<g>
</g>
<g>
</g>
<g>
</g>
</svg>
